<svg width="20" height="18" viewBox="0 0 20 18" fill="currentColor" xmlns="http://www.w3.org/2000/svg">
<path fill-rule="evenodd" clip-rule="evenodd" d="M6.91072 3.4107C6.58529 3.73614 6.58529 4.26378 6.91072 4.58922C7.23616 4.91465 7.7638 4.91465 8.08923 4.58922L9.16665 3.51181L9.16665 9.83329C9.16665 10.2935 9.53974 10.6666 9.99998 10.6666C10.4602 10.6666 10.8333 10.2935 10.8333 9.83329V3.51181L11.9107 4.58922C12.2362 4.91465 12.7638 4.91465 13.0892 4.58922C13.4147 4.26378 13.4147 3.73614 13.0892 3.4107L10.5892 0.910703C10.2638 0.585267 9.73616 0.585267 9.41072 0.910703L6.91072 3.4107ZM6.09693 12.1337C6.48531 11.969 6.66658 11.5206 6.50181 11.1322C6.33705 10.7438 5.88863 10.5625 5.50025 10.7273L1.29887 12.5097C1.01662 12.6294 0.833313 12.9063 0.833313 13.2129C0.833313 13.5195 1.01662 13.7964 1.29887 13.9161L9.70164 17.481C9.89231 17.5618 10.1076 17.5618 10.2983 17.481L18.7011 13.9161C18.9833 13.7964 19.1666 13.5195 19.1666 13.2129C19.1666 12.9063 18.9833 12.6294 18.7011 12.5097L14.4997 10.7273C14.1113 10.5625 13.6629 10.7438 13.4981 11.1322C13.3334 11.5206 13.5147 11.969 13.903 12.1337L16.4468 13.2129L9.99998 15.9479L3.55313 13.2129L6.09693 12.1337Z" fill="currentColor"/>
</svg>
