<svg xmlns="http://www.w3.org/2000/svg" width="13" height="10" viewBox="0 0 13 10" fill="none">
    <path d="M11.9962 1.6541C11.7847 1.23002 11.4753 0.862347 11.0936 0.581439C10.7119 0.300532 10.2689 0.11445 9.80107 0.0385584C9.33327 -0.0373328 8.85412 -0.000855961 8.4032 0.144977C7.95228 0.29081 7.54252 0.541815 7.20775 0.877266L6.61749 1.46753C6.55523 1.52976 6.47081 1.56473 6.38278 1.56473C6.29475 1.56473 6.21032 1.52976 6.14807 1.46753L5.55714 0.877266C4.99646 0.316585 4.23601 0.00159717 3.44309 0.00159717C2.65017 0.00159717 1.88972 0.316585 1.32904 0.877266C0.768357 1.43795 0.453369 2.1984 0.453369 2.99132C0.453369 3.78424 0.768357 4.54469 1.32904 5.10537L5.77094 9.73916C5.85001 9.82162 5.94495 9.88724 6.05004 9.93206C6.15513 9.97689 6.2682 10 6.38245 10C6.4967 10 6.60977 9.97689 6.71486 9.93206C6.81994 9.88724 6.91488 9.82162 6.99395 9.73916L11.4359 5.10537C11.8799 4.66185 12.173 4.08976 12.2736 3.47027C12.3742 2.85077 12.2771 2.21533 11.9962 1.6541Z" fill="url(#paint0_linear_37_1928)"/>
    <defs>
        <linearGradient id="paint0_linear_37_1928" x1="1.25326" y1="3.43441" x2="11.3648" y2="7.93418" gradientUnits="userSpaceOnUse">
            <stop stop-color="#EA3D3B"/>
            <stop offset="0.526042" stop-color="#F56B71"/>
            <stop offset="1" stop-color="#F88E66"/>
        </linearGradient>
    </defs>
</svg>
