<svg viewBox="0 0 700 700" fill="none" xmlns="http://www.w3.org/2000/svg">
<path fill-rule="evenodd" clip-rule="evenodd" d="M529.162 19C510.652 25.7372 493.65 36.0543 479.126 49.3623C464.603 62.6703 452.844 78.7085 444.519 96.5612C436.194 114.414 431.467 133.731 430.608 153.411C429.749 173.091 432.774 192.747 439.511 211.257C446.248 229.767 456.565 246.769 469.873 261.292C483.181 275.816 499.22 287.575 517.072 295.9C534.925 304.225 554.243 308.952 573.922 309.811C593.602 310.67 613.258 307.645 631.768 300.908L529.162 19ZM366.688 104.74C351.263 110.355 337.095 118.952 324.992 130.042C312.889 141.132 303.09 154.497 296.152 169.375C289.215 184.252 285.276 200.35 284.56 216.749C283.844 233.149 286.365 249.529 291.979 264.954C297.594 280.38 306.191 294.548 317.281 306.651C328.371 318.753 341.736 328.553 356.614 335.49C371.491 342.428 387.589 346.367 403.988 347.083C420.388 347.799 436.768 345.278 452.193 339.663L366.688 104.74ZM194.35 202.171C204.032 193.299 215.367 186.421 227.707 181.93L296.111 369.868C283.771 374.36 270.667 376.377 257.547 375.804C244.428 375.231 231.549 372.08 219.647 366.53C207.746 360.98 197.053 353.14 188.181 343.458C179.309 333.776 172.431 322.441 167.94 310.101C163.448 297.761 161.432 284.657 162.004 271.537C162.577 258.417 165.728 245.539 171.278 233.637C176.828 221.735 184.668 211.043 194.35 202.171ZM117.349 264.664C108.093 268.033 99.5923 273.191 92.3307 279.845C85.0692 286.499 79.1893 294.518 75.027 303.445C70.8645 312.371 68.501 322.03 68.0714 331.87C67.6418 341.709 69.1544 351.537 72.523 360.793C75.8916 370.048 81.0502 378.549 87.7042 385.81C94.3582 393.072 102.377 398.952 111.304 403.114C120.23 407.277 129.889 409.64 139.729 410.07C149.568 410.499 159.396 408.987 168.652 405.618L117.349 264.664ZM287.739 432H302.226H433.544H449.045L455.42 446.128L542.966 640.128L499.214 659.872L418.044 480H385.09V682H337.09V480H316.714L221.327 661.18L178.853 638.819L280.99 444.819L287.739 432Z" fill="white"/>
</svg>
