<svg width="20" height="18" viewBox="0 0 20 18" fill="currentColor" xmlns="http://www.w3.org/2000/svg">
<path fill-rule="evenodd" clip-rule="evenodd" d="M13.0892 7.92261C13.4147 7.59717 13.4147 7.06953 13.0892 6.7441C12.7638 6.41866 12.2362 6.41866 11.9107 6.7441L10.8333 7.82151V1.50002C10.8333 1.03978 10.4602 0.666687 9.99998 0.666687C9.53974 0.666687 9.16665 1.03978 9.16665 1.50002V7.82151L8.08923 6.7441C7.7638 6.41866 7.23616 6.41866 6.91072 6.7441C6.58529 7.06953 6.58529 7.59717 6.91072 7.92261L9.41072 10.4226C9.73616 10.748 10.2638 10.748 10.5892 10.4226L13.0892 7.92261ZM6.09693 12.1338C6.48531 11.969 6.66658 11.5206 6.50181 11.1322C6.33705 10.7439 5.88863 10.5626 5.50025 10.7273L1.29887 12.5098C1.01662 12.6295 0.833313 12.9064 0.833313 13.213C0.833313 13.5196 1.01662 13.7965 1.29887 13.9162L9.70164 17.481C9.89231 17.5619 10.1076 17.5619 10.2983 17.481L18.7011 13.9162C18.9833 13.7965 19.1666 13.5196 19.1666 13.213C19.1666 12.9064 18.9833 12.6295 18.7011 12.5098L14.4997 10.7273C14.1113 10.5626 13.6629 10.7439 13.4981 11.1322C13.3334 11.5206 13.5147 11.969 13.903 12.1338L16.4468 13.213L9.99998 15.948L3.55313 13.213L6.09693 12.1338Z" fill="currentColor"/>
</svg>
