<?xml version="1.0" encoding="UTF-8"?>
<svg xmlns="http://www.w3.org/2000/svg" xmlns:xlink="http://www.w3.org/1999/xlink" width="24px" height="24px" viewBox="0 0 24 24" version="1.1">
<defs>
<linearGradient id="linear0" gradientUnits="userSpaceOnUse" x1="0" y1="1" x2="1" y2="0" gradientTransform="matrix(24,0,0,24,0,0)">
<stop offset="0" style="stop-color:rgb(69.019608%,3.137255%,30.196078%);stop-opacity:1;"/>
<stop offset="1" style="stop-color:rgb(100%,30.980392%,54.509804%);stop-opacity:1;"/>
</linearGradient>
</defs>
<g id="surface1">
<rect x="0" y="0" width="24" height="24" style="fill:url(#linear0);stroke:none;"/>
<path style=" stroke:none;fill-rule:evenodd;fill:rgb(100%,100%,100%);fill-opacity:1;" d="M 19.800781 5.398438 L 18.898438 5.398438 C 18.113281 5.398438 18.011719 5.902344 18 6.019531 L 18 9 L 17.398438 9 L 17.398438 6.300781 L 15.300781 6.300781 L 15.300781 11.101562 L 17.699219 11.101562 C 17.855469 11.101562 17.988281 11.222656 18 11.378906 C 18.007812 11.480469 18.101562 12 18.898438 12 L 19.800781 12 Z M 4.199219 9.300781 L 8.398438 9.300781 L 8.398438 8.101562 L 4.199219 8.101562 Z M 20.398438 5.101562 L 20.398438 12.300781 C 20.398438 12.464844 20.265625 12.601562 20.101562 12.601562 L 18.898438 12.601562 C 18.003906 12.601562 17.601562 12.105469 17.460938 11.699219 L 15 11.699219 C 14.835938 11.699219 14.699219 11.566406 14.699219 11.398438 L 14.699219 11.101562 L 13.800781 11.101562 L 13.800781 10.5 L 14.699219 10.5 L 14.699219 6.898438 L 9.539062 6.898438 C 9.082031 6.898438 9 7.09375 9 8.101562 L 9 9.300781 C 9 10.304688 9.082031 10.5 9.539062 10.5 L 11.101562 10.5 L 11.101562 11.082031 L 9.539062 11.082031 C 8.679688 11.082031 8.46875 10.519531 8.417969 9.898438 L 4.199219 9.898438 L 4.199219 11.101562 L 3.601562 11.101562 L 3.601562 6.300781 L 4.199219 6.300781 L 4.199219 7.5 L 8.417969 7.5 C 8.46875 6.882812 8.679688 6.316406 9.539062 6.316406 L 14.699219 6.316406 L 14.699219 6 C 14.699219 5.835938 14.835938 5.699219 15 5.699219 L 17.460938 5.699219 C 17.601562 5.292969 18.003906 4.800781 18.898438 4.800781 L 20.101562 4.800781 C 20.265625 4.800781 20.398438 4.933594 20.398438 5.101562 Z M 16.5 15.300781 L 19.5 15.300781 L 19.5 15.898438 L 16.722656 15.898438 L 15.695312 19.242188 C 15.65625 19.367188 15.539062 19.453125 15.40625 19.453125 C 15.273438 19.453125 15.15625 19.367188 15.121094 19.238281 L 12.378906 9.988281 L 10.109375 17.621094 C 10.074219 17.742188 9.964844 17.828125 9.839844 17.835938 C 9.714844 17.847656 9.597656 17.773438 9.546875 17.65625 L 8.246094 14.679688 L 7.484375 16.898438 C 7.441406 17.019531 7.328125 17.101562 7.199219 17.101562 L 3.898438 17.101562 L 3.898438 16.5 L 6.984375 16.5 L 7.929688 13.757812 C 7.96875 13.640625 8.078125 13.558594 8.203125 13.554688 C 8.332031 13.550781 8.441406 13.621094 8.488281 13.734375 L 9.769531 16.664062 L 12.089844 8.847656 C 12.128906 8.71875 12.246094 8.632812 12.378906 8.632812 C 12.511719 8.632812 12.628906 8.71875 12.667969 8.847656 L 15.414062 18.117188 L 16.214844 15.511719 C 16.25 15.386719 16.367188 15.300781 16.5 15.300781 Z M 16.5 15.300781 "/>
</g>
</svg>
