<svg width="24" height="24" viewBox="0 0 18 18" fill="none" xmlns="http://www.w3.org/2000/svg">
<title>OpenTelemetry</title>
<path fill-rule="evenodd" clip-rule="evenodd" d="M9.48377 12.3472C8.77407 11.637 8.77407 10.486 9.48377 9.77571C10.194 9.066 11.345 9.066 12.0547 9.77571C12.765 10.486 12.765 11.637 12.0547 12.3472C11.345 13.0569 10.194 13.0569 9.48377 12.3472ZM11.1138 11.8947C11.223 11.8494 11.3222 11.783 11.4058 11.6993C11.7572 11.3479 11.7572 10.7766 11.4058 10.4267C11.3222 10.343 11.223 10.2767 11.1138 10.2314C11.0046 10.1861 10.8875 10.1628 10.7693 10.1628C10.651 10.1628 10.5339 10.1861 10.4247 10.2314C10.3155 10.2767 10.2163 10.343 10.1327 10.4267C10.0491 10.5103 9.98283 10.6094 9.93759 10.7186C9.89235 10.8278 9.86907 10.9448 9.86907 11.063C9.86907 11.1812 9.89235 11.2982 9.93759 11.4074C9.98283 11.5166 10.0491 11.6158 10.1327 11.6993C10.2163 11.783 10.3155 11.8494 10.4247 11.8947C10.5339 11.9399 10.651 11.9633 10.7693 11.9633C10.8875 11.9633 11.0046 11.9399 11.1138 11.8947ZM10.9106 1.94391L12.0247 0.829973C12.1301 0.725351 12.2726 0.666504 12.4211 0.666504C12.5696 0.666504 12.7121 0.725215 12.8175 0.829837L17.1687 5.1798C17.3865 5.39747 17.3865 5.75612 17.1687 5.97392L16.0547 7.088C15.949 7.19288 15.8062 7.25173 15.6573 7.25173C15.5084 7.25173 15.3656 7.19288 15.2599 7.088L10.9106 2.73871C10.8057 2.63304 10.7469 2.49019 10.7469 2.34131C10.7469 2.19243 10.8057 2.04958 10.9106 1.94391ZM4.36814 14.7059C4.36814 14.8405 4.31481 14.9697 4.21982 15.0651L3.05041 16.235L3.04825 16.2367L3.36955 16.558C3.54718 16.7333 3.54542 17.0224 3.36955 17.2C3.32742 17.2422 3.27738 17.2757 3.22229 17.2986C3.16721 17.3214 3.10816 17.3332 3.04852 17.3332C2.98888 17.3332 2.92983 17.3214 2.87475 17.2986C2.81966 17.2757 2.76962 17.2422 2.72749 17.2L0.800214 15.2733C0.622585 15.0973 0.622585 14.8082 0.800214 14.6307C0.976085 14.4531 1.26519 14.4531 1.44282 14.6307L1.76358 14.952L1.76575 14.9504L2.93515 13.7803C3.03066 13.6853 3.15986 13.632 3.29454 13.632C3.42921 13.632 3.55841 13.6853 3.65392 13.7803L4.21982 14.3467C4.31481 14.4421 4.36814 14.5713 4.36814 14.7059ZM7.63789 6.50279L10.1127 4.02816C10.1652 3.97551 10.2278 3.93375 10.2966 3.90525C10.3653 3.87676 10.439 3.86209 10.5134 3.86209C10.5878 3.86209 10.6615 3.87676 10.7302 3.90525C10.7989 3.93375 10.8614 3.97551 10.914 4.02816L13.9702 7.08465C14.1896 7.30449 14.1896 7.66598 13.9702 7.88581L12.7326 9.12354C11.7608 8.15111 10.2462 8.05492 9.16607 8.83227L7.63789 7.30449C7.41805 7.08465 7.41805 6.72263 7.63789 6.50279ZM7.62084 8.57374L8.52347 9.47636C7.93362 10.3066 7.85597 11.3867 8.28875 12.2808L6.24161 14.3313C6.13932 14.4329 6.00102 14.4899 5.85686 14.4899C5.7127 14.4899 5.57439 14.4329 5.47211 14.3313L3.66862 12.5277C3.56708 12.4254 3.5101 12.2872 3.5101 12.143C3.5101 11.9989 3.56708 11.8606 3.66862 11.7584L6.85188 8.57374C7.06279 8.36242 7.40939 8.36242 7.62084 8.57374Z" fill="#9CA2AB"/>
</svg>
