<svg width="18" height="18" viewBox="0 0 18 18" fill="none" xmlns="http://www.w3.org/2000/svg">
<path fill-rule="evenodd" clip-rule="evenodd" d="M3.375 9.56641C3.375 6.77046 5.64156 4.50391 8.4375 4.50391C11.2334 4.50391 13.5 6.77046 13.5 9.56641C13.5 12.3623 11.2334 14.6289 8.4375 14.6289C5.64156 14.6289 3.375 12.3623 3.375 9.56641ZM2.27522 10.1289C2.55942 13.2826 5.20985 15.7539 8.4375 15.7539C10.3835 15.7539 12.1197 14.8556 13.2539 13.4509L15.4519 14.8247C15.7153 14.9893 16.0623 14.9092 16.227 14.6458C16.3916 14.3823 16.3116 14.0353 16.0481 13.8707L13.8787 12.5148C14.2701 11.794 14.5225 10.9867 14.5998 10.1289H16.3125C16.6232 10.1289 16.875 9.87707 16.875 9.56641C16.875 9.25575 16.6232 9.00391 16.3125 9.00391H14.5998C14.5228 8.15016 14.2725 7.34643 13.8842 6.62819L16.0016 5.56952C16.2794 5.43059 16.392 5.09271 16.2531 4.81485C16.1142 4.53699 15.7763 4.42436 15.4984 4.56329L13.2561 5.68448C12.1218 4.27837 10.3847 3.37891 8.4375 3.37891C5.20985 3.37891 2.55942 5.85025 2.27522 9.00391H1.125C0.81434 9.00391 0.5625 9.25575 0.5625 9.56641C0.5625 9.87707 0.81434 10.1289 1.125 10.1289H2.27522ZM6.75 9.56641C6.75 8.63443 7.50552 7.87891 8.4375 7.87891C9.36948 7.87891 10.125 8.63443 10.125 9.56641C10.125 10.4984 9.36948 11.2539 8.4375 11.2539C7.50552 11.2539 6.75 10.4984 6.75 9.56641ZM8.4375 6.75391C6.8842 6.75391 5.625 8.01311 5.625 9.56641C5.625 11.1197 6.8842 12.3789 8.4375 12.3789C9.9908 12.3789 11.25 11.1197 11.25 9.56641C11.25 8.01311 9.9908 6.75391 8.4375 6.75391Z" fill="#D1FAE5"/>
</svg>
