<svg width="18" height="18" viewBox="0 0 18 18" fill="none" xmlns="http://www.w3.org/2000/svg">
<path fill-rule="evenodd" clip-rule="evenodd" d="M8.6024 1.85616C8.82206 1.63649 9.17822 1.63649 9.39789 1.85616L12.7649 5.22316C12.7986 5.25552 12.8286 5.29234 12.8537 5.33312C12.8894 5.39066 12.9136 5.45323 12.9266 5.51763C12.96 5.68228 12.9171 5.84863 12.8186 5.97505C12.7782 6.02687 12.7285 6.07197 12.6709 6.1075C12.6302 6.13273 12.5869 6.15227 12.5423 6.16612L11.2501 6.59683V9.42011L15.9007 10.7119C16.1876 10.7916 16.3605 11.0798 16.3011 11.3672C16.3087 11.4041 16.3126 11.4421 16.3126 11.4805V13.6742C16.3126 13.9258 16.1456 14.1468 15.9035 14.2154L9.15348 16.1279C8.98387 16.176 8.80154 16.1417 8.66091 16.0354C8.64657 16.0246 8.63283 16.0131 8.61972 16.0011L2.0968 14.1529C1.85473 14.0843 1.68764 13.8633 1.68764 13.6117V11.418C1.68764 11.3904 1.68967 11.363 1.69362 11.3361C1.65238 11.0593 1.82302 10.7888 2.09959 10.7119L6.75014 9.42011V6.59683L5.458 6.16612C5.41335 6.15227 5.37009 6.13273 5.32935 6.1075C5.27175 6.07197 5.22205 6.02687 5.18168 5.97505C5.13047 5.9096 5.09578 5.83543 5.07761 5.75816C5.04401 5.61518 5.06698 5.4616 5.14654 5.33312C5.1717 5.29233 5.20166 5.25551 5.23539 5.22316L8.6024 1.85616ZM11.3338 5.38308L9.00014 3.0494L6.66646 5.38308L7.47821 5.65367C7.51584 5.66524 7.55178 5.68066 7.58559 5.69945C7.65948 5.74034 7.72153 5.7965 7.769 5.86248C7.81658 5.92838 7.85024 6.005 7.86567 6.08803C7.87281 6.12604 7.87606 6.16502 7.87514 6.20437V9.83535C7.87533 9.84379 7.87533 9.8522 7.87514 9.86058V11.2539C7.87514 11.5646 7.6233 11.8164 7.31264 11.8164C7.00198 11.8164 6.75014 11.5646 6.75014 11.2539V10.5877L4.04012 11.3405L9.11044 12.7771L14.0715 11.3714L11.2501 10.5877V11.2539C11.2501 11.5646 10.9983 11.8164 10.6876 11.8164C10.377 11.8164 10.1251 11.5646 10.1251 11.2539V9.86058C10.125 9.8522 10.125 9.84379 10.1251 9.83535V6.20436C10.1242 6.16545 10.1274 6.12691 10.1344 6.0893C10.1497 6.00578 10.1835 5.92872 10.2313 5.86248C10.279 5.79617 10.3414 5.73977 10.4158 5.69883C10.4493 5.68031 10.4849 5.66511 10.5221 5.65367L11.3338 5.38308ZM9.56264 14.8427V13.8182L15.1876 12.2245V13.249L9.56264 14.8427ZM2.81264 12.162L8.43764 13.7557V14.7802L2.81264 13.1865V12.162Z" fill="#EDE9FE"/>
</svg>
