<svg width="28" height="28" viewBox="0 0 28 28" fill="none" xmlns="http://www.w3.org/2000/svg">
<rect width="28" height="28" rx="6" fill="url(#paint0_linear_603_59)"/>
<path fill-rule="evenodd" clip-rule="evenodd" d="M8 9.25C7.58579 9.25 7.25 9.58579 7.25 10V10.75C7.25 11.1642 7.58579 11.5 8 11.5H20C20.4142 11.5 20.75 11.1642 20.75 10.75V10C20.75 9.58579 20.4142 9.25 20 9.25H8ZM5.75 10C5.75 8.75736 6.75736 7.75 8 7.75H20C21.2426 7.75 22.25 8.75736 22.25 10V10.75C22.25 11.7297 21.6239 12.5631 20.75 12.872V19C20.75 19.5967 20.5129 20.169 20.091 20.591C19.669 21.0129 19.0967 21.25 18.5 21.25H9.5C8.90326 21.25 8.33097 21.0129 7.90901 20.591C7.48705 20.169 7.25 19.5967 7.25 19V12.872C6.37611 12.5631 5.75 11.7297 5.75 10.75V10ZM8.75 13H19.25V19C19.25 19.1989 19.171 19.3897 19.0303 19.5303C18.8897 19.671 18.6989 19.75 18.5 19.75H9.5C9.30109 19.75 9.11032 19.671 8.96967 19.5303C8.82902 19.3897 8.75 19.1989 8.75 19V13ZM12.5 14.5C12.0858 14.5 11.75 14.8358 11.75 15.25C11.75 15.6642 12.0858 16 12.5 16H15.5C15.9142 16 16.25 15.6642 16.25 15.25C16.25 14.8358 15.9142 14.5 15.5 14.5H12.5Z" fill="white"/>
<defs>
<linearGradient id="paint0_linear_603_59" x1="1.88861" y1="9.61634" x2="26.9604" y2="19.0248" gradientUnits="userSpaceOnUse">
<stop stop-color="#EA3D3B"/>
<stop offset="0.526042" stop-color="#F56B71"/>
<stop offset="1" stop-color="#F88E66"/>
</linearGradient>
</defs>
</svg>
