<svg  viewBox="0 0 28 28" fill="none" xmlns="http://www.w3.org/2000/svg">
<g filter="url(#filter0_d_91_1675)">
<rect x="2" y="1" width="24" height="24" rx="6" fill="url(#paint0_linear_91_1675)"/>
<path fill-rule="evenodd" clip-rule="evenodd" d="M9.73805 7.7953C9.9984 8.05565 9.9984 8.47776 9.73805 8.73811C7.3984 11.0778 7.3984 14.9223 9.73805 17.262C9.9984 17.5223 9.9984 17.9444 9.73805 18.2048C9.4777 18.4651 9.05559 18.4651 8.79524 18.2048C5.93489 15.3444 5.93489 10.6556 8.79524 7.7953C9.05559 7.53495 9.4777 7.53495 9.73805 7.7953ZM18.2619 7.7953C18.5223 7.53495 18.9444 7.53495 19.2047 7.7953C22.0651 10.6556 22.0651 15.2778 19.2047 18.1381C18.9444 18.3985 18.5223 18.3985 18.2619 18.1381C18.0016 17.8778 18.0016 17.4556 18.2619 17.1953C20.6016 14.8556 20.6016 11.0778 18.2619 8.73811C18.0016 8.47776 18.0016 8.05565 18.2619 7.7953ZM11.6612 9.65204C11.9271 9.90679 11.936 10.3288 11.6813 10.5946C10.3897 11.9424 10.4038 14.061 11.6714 15.3286C11.9317 15.589 11.9317 16.0111 11.6714 16.2714C11.411 16.5318 10.9889 16.5318 10.7286 16.2714C8.92948 14.4724 8.94358 11.5243 10.7186 9.67209C10.9734 9.40626 11.3954 9.39728 11.6612 9.65204ZM16.3286 9.72861C16.5889 9.46826 17.011 9.46826 17.2714 9.72861C19.0704 11.5277 19.0563 14.4757 17.2813 16.3279C17.0265 16.5938 16.6045 16.6028 16.3387 16.348C16.0729 16.0933 16.0639 15.6712 16.3186 15.4054C17.6102 14.0576 17.5961 11.939 16.3286 10.6714C16.0682 10.4111 16.0682 9.98896 16.3286 9.72861ZM14 12.3334C13.6318 12.3334 13.3333 12.6318 13.3333 13C13.3333 13.3682 13.6318 13.6667 14 13.6667C14.3682 13.6667 14.6667 13.3682 14.6667 13C14.6667 12.6318 14.3682 12.3334 14 12.3334ZM12 13C12 11.8955 12.8954 11 14 11C15.1046 11 16 11.8955 16 13C16 14.1046 15.1046 15 14 15C12.8954 15 12 14.1046 12 13Z" fill="white"/>
</g>
<defs>
<filter id="filter0_d_91_1675" x="0" y="0" width="28" height="28" filterUnits="userSpaceOnUse" color-interpolation-filters="sRGB">
<feFlood flood-opacity="0" result="BackgroundImageFix"/>
<feColorMatrix in="SourceAlpha" type="matrix" values="0 0 0 0 0 0 0 0 0 0 0 0 0 0 0 0 0 0 127 0" result="hardAlpha"/>
<feOffset dy="1"/>
<feGaussianBlur stdDeviation="1"/>
<feComposite in2="hardAlpha" operator="out"/>
<feColorMatrix type="matrix" values="0 0 0 0 0.027451 0 0 0 0 0.0313726 0 0 0 0 0.0627451 0 0 0 0.15 0"/>
<feBlend mode="normal" in2="BackgroundImageFix" result="effect1_dropShadow_91_1675"/>
<feBlend mode="normal" in="SourceGraphic" in2="effect1_dropShadow_91_1675" result="shape"/>
</filter>
<linearGradient id="paint0_linear_91_1675" x1="3.61881" y1="9.24257" x2="25.1089" y2="17.3069" gradientUnits="userSpaceOnUse">
<stop stop-color="#3F42C9"/>
<stop offset="0.526042" stop-color="#6366F1"/>
<stop offset="1" stop-color="#878AFE"/>
</linearGradient>
</defs>
</svg>
