<svg viewBox="0 0 101 30" fill="none" xmlns="http://www.w3.org/2000/svg">
<path d="M46.7102 8.09091C46.7102 9.57978 46.4313 10.855 45.8736 11.9165C45.3203 12.9736 44.5646 13.7833 43.6065 14.3455C42.6529 14.9078 41.5711 15.1889 40.3612 15.1889C39.1512 15.1889 38.0671 14.9078 37.109 14.3455C36.1554 13.7788 35.3997 12.9669 34.842 11.9098C34.2887 10.8482 34.0121 9.57528 34.0121 8.09091C34.0121 6.60204 34.2887 5.32907 34.842 4.27202C35.3997 3.21046 36.1554 2.39856 37.109 1.83629C38.0671 1.27403 39.1512 0.992897 40.3612 0.992897C41.5711 0.992897 42.6529 1.27403 43.6065 1.83629C44.5646 2.39856 45.3203 3.21046 45.8736 4.27202C46.4313 5.32907 46.7102 6.60204 46.7102 8.09091ZM44.1935 8.09091C44.1935 7.04285 44.0294 6.15897 43.701 5.43927C43.3771 4.71508 42.9273 4.16856 42.3516 3.79972C41.7758 3.42637 41.1123 3.2397 40.3612 3.2397C39.61 3.2397 38.9465 3.42637 38.3707 3.79972C37.795 4.16856 37.3429 4.71508 37.0146 5.43927C36.6907 6.15897 36.5288 7.04285 36.5288 8.09091C36.5288 9.13897 36.6907 10.0251 37.0146 10.7493C37.3429 11.469 37.795 12.0155 38.3707 12.3888C38.9465 12.7577 39.61 12.9421 40.3612 12.9421C41.1123 12.9421 41.7758 12.7577 42.3516 12.3888C42.9273 12.0155 43.3771 11.469 43.701 10.7493C44.0294 10.0251 44.1935 9.13897 44.1935 8.09091ZM47.2872 3.28018V1.18182H58.3121V3.28018H54.0412V15H51.5582V3.28018H47.2872ZM62.8446 15.2024C61.8056 15.2024 60.9082 14.9865 60.1525 14.5547C59.4013 14.1184 58.8233 13.5021 58.4185 12.706C58.0137 11.9053 57.8113 10.9629 57.8113 9.87891C57.8113 8.81286 58.0137 7.87725 58.4185 7.07209C58.8278 6.26243 59.3991 5.63269 60.1323 5.18288C60.8655 4.72857 61.7269 4.50142 62.7164 4.50142C63.3552 4.50142 63.9579 4.60488 64.5247 4.81179C65.0959 5.0142 65.5997 5.32907 66.036 5.75639C66.4769 6.18371 66.8232 6.72798 67.0751 7.3892C67.327 8.04593 67.453 8.8286 67.453 9.73722V10.4862H58.9583V8.83984H65.1117C65.1072 8.37204 65.006 7.95597 64.8081 7.59162C64.6101 7.22277 64.3335 6.93265 63.9782 6.72124C63.6273 6.50982 63.218 6.40412 62.7502 6.40412C62.2509 6.40412 61.8123 6.52557 61.4345 6.76847C61.0566 7.00687 60.762 7.32173 60.5506 7.71307C60.3437 8.0999 60.238 8.52498 60.2335 8.98828V10.4254C60.2335 11.0282 60.3437 11.5455 60.5641 11.9773C60.7845 12.4046 61.0926 12.733 61.4885 12.9624C61.8843 13.1873 62.3476 13.2997 62.8784 13.2997C63.2337 13.2997 63.5553 13.2502 63.8432 13.1513C64.1311 13.0478 64.3807 12.8971 64.5922 12.6992C64.8036 12.5013 64.9633 12.2562 65.0712 11.9638L67.3517 12.2202C67.2078 12.8229 66.9334 13.3492 66.5286 13.799C66.1283 14.2443 65.6155 14.5907 64.9902 14.8381C64.365 15.081 63.6498 15.2024 62.8446 15.2024ZM68.9493 1.18182H71.3917V12.0312C71.3917 12.4181 71.4502 12.6947 71.5672 12.8612C71.6841 13.0276 71.891 13.1063 72.1879 13.0973C72.3498 13.0928 72.4713 13.0838 72.5523 13.0703C72.6377 13.0523 72.7142 13.0343 72.7817 13.0163L73.1865 14.8651C73.0425 14.91 72.8626 14.9528 72.6467 14.9933C72.4353 15.0337 72.1744 15.0585 71.864 15.0675C70.8745 15.0945 70.1413 14.8875 69.6645 14.4467C69.1877 14.0059 68.9493 13.3335 68.9493 12.4293V1.18182ZM74.2206 15V1.18182H79.5104C80.509 1.18182 81.3389 1.33925 82.0001 1.65412C82.6658 1.96449 83.1629 2.38956 83.4912 2.92933C83.8241 3.4691 83.9905 4.08085 83.9905 4.76456C83.9905 5.32682 83.8826 5.80812 83.6666 6.20845C83.4507 6.60428 83.1606 6.9259 82.7963 7.17329C82.4319 7.42069 82.0248 7.59837 81.575 7.70632V7.84126C82.0653 7.86825 82.5354 8.01894 82.9852 8.29332C83.4395 8.56321 83.8106 8.94555 84.0985 9.44034C84.3863 9.93513 84.5303 10.5334 84.5303 11.2351C84.5303 11.9503 84.3571 12.5935 84.0108 13.1648C83.6644 13.7315 83.1426 14.1791 82.4454 14.5075C81.7482 14.8358 80.8711 15 79.814 15H74.2206ZM76.7238 12.9084H79.4159C80.3246 12.9084 80.979 12.7352 81.3794 12.3888C81.7842 12.038 81.9866 11.5882 81.9866 11.0394C81.9866 10.6301 81.8854 10.2612 81.683 9.93288C81.4806 9.60002 81.1927 9.33913 80.8193 9.15021C80.446 8.95679 80.0007 8.86009 79.4834 8.86009H76.7238V12.9084ZM76.7238 7.05859H79.2C79.6318 7.05859 80.0209 6.97988 80.3673 6.82244C80.7136 6.66051 80.9858 6.43336 81.1837 6.14098C81.3861 5.8441 81.4873 5.49325 81.4873 5.08842C81.4873 4.55315 81.2984 4.11233 80.9206 3.76598C80.5472 3.41963 79.9917 3.24645 79.254 3.24645H76.7238V7.05859ZM86.03 15V4.63636H88.4724V15H86.03ZM87.258 3.16548C86.8711 3.16548 86.5383 3.03729 86.2594 2.78089C85.9805 2.52 85.8411 2.20739 85.8411 1.84304C85.8411 1.47419 85.9805 1.16158 86.2594 0.905184C86.5383 0.644294 86.8711 0.513849 87.258 0.513849C87.6493 0.513849 87.9822 0.644294 88.2565 0.905184C88.5354 1.16158 88.6749 1.47419 88.6749 1.84304C88.6749 2.20739 88.5354 2.52 88.2565 2.78089C87.9822 3.03729 87.6493 3.16548 87.258 3.16548ZM92.8565 8.92756V15H90.4141V4.63636H92.7486V6.39737H92.87C93.1084 5.81712 93.4885 5.35606 94.0103 5.0142C94.5366 4.67235 95.1866 4.50142 95.9602 4.50142C96.6754 4.50142 97.2984 4.65436 97.8292 4.96023C98.3645 5.2661 98.7783 5.70916 99.0707 6.28942C99.3676 6.86967 99.5137 7.57363 99.5092 8.40128V15H97.0668V8.77912C97.0668 8.08641 96.8868 7.54439 96.527 7.15305C96.1717 6.76172 95.6791 6.56605 95.0494 6.56605C94.6221 6.56605 94.242 6.66051 93.9091 6.84943C93.5807 7.03385 93.3221 7.30149 93.1332 7.65234C92.9488 8.0032 92.8565 8.42827 92.8565 8.92756Z" fill="white"/>
<path d="M44.6164 27V22.6364H45.2535V24.2578H45.2919C45.3288 24.1896 45.3821 24.1108 45.4517 24.0213C45.5213 23.9318 45.6179 23.8537 45.7414 23.7869C45.865 23.7188 46.0284 23.6847 46.2315 23.6847C46.4957 23.6847 46.7315 23.7514 46.9389 23.8849C47.1463 24.0185 47.3089 24.2109 47.4268 24.4624C47.5461 24.7138 47.6058 25.0163 47.6058 25.37C47.6058 25.7237 47.5468 26.027 47.4289 26.2798C47.311 26.5312 47.1491 26.7251 46.9431 26.8615C46.7372 26.9964 46.5021 27.0639 46.2379 27.0639C46.039 27.0639 45.8764 27.0305 45.75 26.9638C45.625 26.897 45.5269 26.8189 45.4559 26.7294C45.3849 26.6399 45.3302 26.5604 45.2919 26.4908H45.2386V27H44.6164ZM45.2407 25.3636C45.2407 25.5937 45.2741 25.7955 45.3409 25.9688C45.4076 26.142 45.5042 26.2777 45.6306 26.3757C45.7571 26.4723 45.9119 26.5206 46.0951 26.5206C46.2855 26.5206 46.4446 26.4702 46.5724 26.3693C46.7002 26.267 46.7968 26.1286 46.8622 25.9538C46.9289 25.7791 46.9623 25.5824 46.9623 25.3636C46.9623 25.1477 46.9296 24.9538 46.8643 24.782C46.8004 24.6101 46.7038 24.4744 46.5745 24.375C46.4467 24.2756 46.2869 24.2259 46.0951 24.2259C45.9105 24.2259 45.7542 24.2734 45.6264 24.3686C45.5 24.4638 45.4041 24.5966 45.3387 24.767C45.2734 24.9375 45.2407 25.1364 45.2407 25.3636ZM48.4325 28.2273C48.3374 28.2273 48.2507 28.2195 48.1726 28.2038C48.0945 28.1896 48.0362 28.174 47.9979 28.157L48.1513 27.6349C48.2678 27.6662 48.3714 27.6797 48.4624 27.6754C48.5533 27.6712 48.6335 27.6371 48.7031 27.5732C48.7741 27.5092 48.8366 27.4048 48.8906 27.2599L48.9695 27.0426L47.772 23.7273H48.4538L49.2827 26.267H49.3168L50.1456 23.7273H50.8295L49.4808 27.4368C49.4183 27.6072 49.3388 27.7514 49.2422 27.8693C49.1456 27.9886 49.0305 28.0781 48.897 28.1378C48.7635 28.1974 48.6087 28.2273 48.4325 28.2273Z" fill="white"/>
<path fill-rule="evenodd" clip-rule="evenodd" d="M57.2349 27.8105C56.3772 28.6681 55.2132 29.1502 54 29.1502V20C55.2132 20 56.3772 20.4831 57.2349 21.3407C58.0925 22.1984 58.5746 23.3624 58.5746 24.5756C58.5746 25.7888 58.0925 26.9528 57.2349 27.8105ZM64.1571 20.0602C66.6509 20.465 68.3444 22.8148 67.9396 25.3087C67.5348 27.8025 65.185 29.496 62.6911 29.0912C60.1973 28.6864 58.5038 26.3366 58.9086 23.8427C59.3134 21.3489 61.6632 19.6554 64.1571 20.0602Z" fill="url(#paint0_linear_636_301)"/>
<g clip-path="url(#clip0_636_301)">
<path d="M73.2429 27.8174C74.2736 27.8174 74.9524 27.0507 74.9524 25.8821C74.9524 24.7135 74.2736 23.9467 73.2429 23.9467C72.2123 23.9467 71.5335 24.7135 71.5335 25.8821C71.5335 27.0507 72.2123 27.8174 73.2429 27.8174ZM73.017 29.15C71.1186 29.15 70 27.8174 70 25.8821C70 23.9467 71.1186 22.6141 72.991 22.6141C73.8207 22.6141 74.4865 22.966 74.8514 23.4819V20H76.3849V29.049H74.8514V28.2573C74.4865 28.8101 73.7828 29.15 73.016 29.15H73.017Z" fill="white"/>
<path d="M79.108 28.0064C80.0757 28.0064 80.6415 27.3276 80.6415 26.3729V26.2719H79.221C78.5672 26.2719 78.1273 26.6368 78.1273 27.1896C78.1273 27.6795 78.5292 28.0064 79.108 28.0064ZM79.4219 22.6141C81.0304 22.6141 82.162 23.5438 82.162 24.9774V29.05H80.6415V28.1073C80.3776 28.7361 79.6488 29.151 78.7431 29.151C77.4865 29.151 76.6318 28.3463 76.6318 27.2526C76.6318 26.021 77.5875 25.2543 79.007 25.2543H80.1757C80.4896 25.2543 80.6405 25.0783 80.6405 24.8274C80.6405 24.2116 80.1627 23.7718 79.3459 23.7718C78.5292 23.7718 78.0384 24.2866 78.0134 24.8524H76.6308C76.7058 23.5958 77.7745 22.6151 79.4209 22.6151L79.4219 22.6141Z" fill="white"/>
<path d="M84.7312 29.15C83.1977 29.15 82.18 28.2953 82.104 26.9377H83.5116C83.5746 27.5415 84.0394 27.9184 84.7312 27.9184C85.335 27.9184 85.7368 27.6165 85.7368 27.2396C85.7368 25.8321 82.268 27.1766 82.268 24.4995C82.268 23.3939 83.2357 22.6141 84.5432 22.6141C86.0267 22.6141 87.0444 23.4309 87.1074 24.6625H85.6999C85.6119 24.0717 85.0711 23.7698 84.5812 23.7698C84.0284 23.7698 83.6635 24.0207 83.6635 24.4485C83.6635 25.8181 87.1824 24.3106 87.1824 27.1756C87.1824 28.3692 86.2147 29.149 84.7312 29.149V29.15Z" fill="white"/>
<path d="M87.3443 29.049V20H88.8778V23.6948C89.2297 23.003 89.9585 22.6141 90.8642 22.6141C92.2847 22.6141 93.2144 23.6448 93.2144 25.1283V29.05H91.6809V25.4552C91.6809 24.5875 91.1401 23.9847 90.3483 23.9847C89.4936 23.9847 88.8778 24.6635 88.8778 25.5932V29.05H87.3443V29.049Z" fill="white"/>
<path d="M96.7073 27.7045H97.0591C98.0518 27.7045 98.6676 26.9377 98.6676 25.3922V23.9087C98.6676 22.3502 98.0518 21.5835 97.0591 21.5835H96.7073C95.7146 21.5835 95.1108 22.3502 95.1108 23.9087V25.3922C95.1108 26.9377 95.7146 27.7045 96.7073 27.7045ZM96.6323 29.15C94.445 29.15 93.4523 27.6415 93.4523 24.9524V24.3496C93.4523 21.6595 94.445 20.1519 96.6323 20.1519H97.1351C99.3224 20.1519 100.328 21.6605 100.328 24.3496V24.9524C100.328 27.6425 99.3224 29.15 97.1351 29.15H96.6323Z" fill="white"/>
</g>
<rect y="1" width="28" height="28" rx="6" fill="url(#paint1_linear_636_301)"/>
<path fill-rule="evenodd" clip-rule="evenodd" d="M8 10.25C7.58579 10.25 7.25 10.5858 7.25 11V11.75C7.25 12.1642 7.58579 12.5 8 12.5H20C20.4142 12.5 20.75 12.1642 20.75 11.75V11C20.75 10.5858 20.4142 10.25 20 10.25H8ZM5.75 11C5.75 9.75736 6.75736 8.75 8 8.75H20C21.2426 8.75 22.25 9.75736 22.25 11V11.75C22.25 12.7297 21.6239 13.5631 20.75 13.872V20C20.75 20.5967 20.5129 21.169 20.091 21.591C19.669 22.0129 19.0967 22.25 18.5 22.25H9.5C8.90326 22.25 8.33097 22.0129 7.90901 21.591C7.48705 21.169 7.25 20.5967 7.25 20V13.872C6.37611 13.5631 5.75 12.7297 5.75 11.75V11ZM8.75 14H19.25V20C19.25 20.1989 19.171 20.3897 19.0303 20.5303C18.8897 20.671 18.6989 20.75 18.5 20.75H9.5C9.30109 20.75 9.11032 20.671 8.96967 20.5303C8.82902 20.3897 8.75 20.1989 8.75 20V14ZM12.5 15.5C12.0858 15.5 11.75 15.8358 11.75 16.25C11.75 16.6642 12.0858 17 12.5 17H15.5C15.9142 17 16.25 16.6642 16.25 16.25C16.25 15.8358 15.9142 15.5 15.5 15.5H12.5Z" fill="white"/>
<defs>
<linearGradient id="paint0_linear_636_301" x1="54.9443" y1="23.1428" x2="65.7001" y2="29.3175" gradientUnits="userSpaceOnUse">
<stop stop-color="#EA3D3B"/>
<stop offset="0.526042" stop-color="#F56B71"/>
<stop offset="1" stop-color="#F88E66"/>
</linearGradient>
<linearGradient id="paint1_linear_636_301" x1="1.88861" y1="10.6163" x2="26.9604" y2="20.0248" gradientUnits="userSpaceOnUse">
<stop stop-color="#EA3D3B"/>
<stop offset="0.526042" stop-color="#F56B71"/>
<stop offset="1" stop-color="#F88E66"/>
</linearGradient>
<clipPath id="clip0_636_301">
<rect width="30.3271" height="9.15" fill="white" transform="translate(70 20)"/>
</clipPath>
</defs>
</svg>
