<svg width="18" height="18" viewBox="0 0 18 18" fill="none" xmlns="http://www.w3.org/2000/svg">
<g clip-path="url(#clip0_461_1976)">
<path fill-rule="evenodd" clip-rule="evenodd" d="M6.75 1.125C6.75 0.81434 6.49816 0.5625 6.1875 0.5625C5.87684 0.5625 5.625 0.81434 5.625 1.125V2.8125C4.0717 2.8125 2.8125 4.0717 2.8125 5.625H1.125C0.81434 5.625 0.5625 5.87684 0.5625 6.1875C0.5625 6.49816 0.81434 6.75 1.125 6.75H2.8125V8.4375H1.125C0.81434 8.4375 0.5625 8.68934 0.5625 9C0.5625 9.31066 0.81434 9.5625 1.125 9.5625H2.8125V11.25H1.125C0.81434 11.25 0.5625 11.5018 0.5625 11.8125C0.5625 12.1232 0.81434 12.375 1.125 12.375H2.8125C2.8125 13.9283 4.0717 15.1875 5.625 15.1875V16.875C5.625 17.1857 5.87684 17.4375 6.1875 17.4375C6.49816 17.4375 6.75 17.1857 6.75 16.875V15.1875H8.4375V16.875C8.4375 17.1857 8.68934 17.4375 9 17.4375C9.31066 17.4375 9.5625 17.1857 9.5625 16.875V15.1875H11.25V16.875C11.25 17.1857 11.5018 17.4375 11.8125 17.4375C12.1232 17.4375 12.375 17.1857 12.375 16.875V15.1875C13.9283 15.1875 15.1875 13.9283 15.1875 12.375H16.875C17.1857 12.375 17.4375 12.1232 17.4375 11.8125C17.4375 11.5018 17.1857 11.25 16.875 11.25H15.1875V9.5625H16.875C17.1857 9.5625 17.4375 9.31066 17.4375 9C17.4375 8.68934 17.1857 8.4375 16.875 8.4375H15.1875V6.75H16.875C17.1857 6.75 17.4375 6.49816 17.4375 6.1875C17.4375 5.87684 17.1857 5.625 16.875 5.625H15.1875C15.1875 4.0717 13.9283 2.8125 12.375 2.8125V1.125C12.375 0.81434 12.1232 0.5625 11.8125 0.5625C11.5018 0.5625 11.25 0.81434 11.25 1.125V2.8125H9.5625V1.125C9.5625 0.81434 9.31066 0.5625 9 0.5625C8.68934 0.5625 8.4375 0.81434 8.4375 1.125V2.8125H6.75V1.125ZM3.9375 6.1875V9V11.8125V12.375C3.9375 13.307 4.69302 14.0625 5.625 14.0625H6.1875H9H11.8125H12.375C13.307 14.0625 14.0625 13.307 14.0625 12.375V11.8125V9V6.1875V5.625C14.0625 4.69302 13.307 3.9375 12.375 3.9375H11.8125H9H6.1875H5.625C4.69302 3.9375 3.9375 4.69302 3.9375 5.625V6.1875ZM6.75 6.1875C6.43934 6.1875 6.1875 6.43934 6.1875 6.75V7.3125H7.50004C7.8107 7.3125 8.06254 7.56434 8.06254 7.875C8.06254 8.18566 7.8107 8.4375 7.50004 8.4375H6.1875V11.25C6.1875 11.5607 6.43934 11.8125 6.75 11.8125H7.875V10.6875C7.875 10.3768 8.12684 10.125 8.4375 10.125C8.74816 10.125 9 10.3768 9 10.6875V11.8125H11.25C11.5607 11.8125 11.8125 11.5607 11.8125 11.25V9.5625H10.6875C10.3768 9.5625 10.125 9.31066 10.125 9C10.125 8.68934 10.3768 8.4375 10.6875 8.4375H11.8125V6.75C11.8125 6.43934 11.5607 6.1875 11.25 6.1875H6.75ZM5.0625 6.75C5.0625 5.81802 5.81802 5.0625 6.75 5.0625H11.25C12.182 5.0625 12.9375 5.81802 12.9375 6.75V11.25C12.9375 12.182 12.182 12.9375 11.25 12.9375H6.75C5.81802 12.9375 5.0625 12.182 5.0625 11.25V6.75Z" fill="#FFEDD5"/>
</g>
<defs>
<clipPath id="clip0_461_1976">
<rect width="18" height="18" fill="white"/>
</clipPath>
</defs>
</svg>
