<svg width="20" height="20" viewBox="0 0 20 20" fill="currentColor" xmlns="http://www.w3.org/2000/svg">
<g clip-path="url(#clip0_91_1269)">
<path fill-rule="evenodd" clip-rule="evenodd" d="M7.49998 0.833313C7.96022 0.833313 8.33331 1.20641 8.33331 1.66665V2.49998H11.6666V1.66665C11.6666 1.20641 12.0397 0.833313 12.5 0.833313C12.9602 0.833313 13.3333 1.20641 13.3333 1.66665V2.49998H15C16.3807 2.49998 17.5 3.61927 17.5 4.99998V6.66665H18.3333C18.7935 6.66665 19.1666 7.03974 19.1666 7.49998C19.1666 7.96022 18.7935 8.33331 18.3333 8.33331H17.5V11.6666H18.3333C18.7935 11.6666 19.1666 12.0397 19.1666 12.5C19.1666 12.9602 18.7935 13.3333 18.3333 13.3333H17.5V15C17.5 16.3807 16.3807 17.5 15 17.5H13.3333V18.3333C13.3333 18.7935 12.9602 19.1666 12.5 19.1666C12.0397 19.1666 11.6666 18.7935 11.6666 18.3333V17.5H8.33331V18.3333C8.33331 18.7935 7.96022 19.1666 7.49998 19.1666C7.03974 19.1666 6.66665 18.7935 6.66665 18.3333V17.5H4.99998C3.61927 17.5 2.49998 16.3807 2.49998 15V13.3333H1.66665C1.20641 13.3333 0.833313 12.9602 0.833313 12.5C0.833313 12.0397 1.20641 11.6666 1.66665 11.6666H2.49998V8.33331H1.66665C1.20641 8.33331 0.833313 7.96022 0.833313 7.49998C0.833313 7.03974 1.20641 6.66665 1.66665 6.66665H2.49998V4.99998C2.49998 3.61927 3.61927 2.49998 4.99998 2.49998H6.66665V1.66665C6.66665 1.20641 7.03974 0.833313 7.49998 0.833313ZM4.99998 4.16665C4.53974 4.16665 4.16665 4.53974 4.16665 4.99998V15C4.16665 15.4602 4.53974 15.8333 4.99998 15.8333H15C15.4602 15.8333 15.8333 15.4602 15.8333 15V4.99998C15.8333 4.53974 15.4602 4.16665 15 4.16665H4.99998ZM6.66665 7.49998C6.66665 7.03974 7.03974 6.66665 7.49998 6.66665H12.5C12.9602 6.66665 13.3333 7.03974 13.3333 7.49998V12.5C13.3333 12.9602 12.9602 13.3333 12.5 13.3333H7.49998C7.03974 13.3333 6.66665 12.9602 6.66665 12.5V7.49998ZM8.33331 8.33331V11.6666H11.6666V8.33331H8.33331Z" fill="currentColor"/>
</g>
<defs>
<clipPath id="clip0_91_1269">
<rect width="20" height="20" fill="currentColor"/>
</clipPath>
</defs>
</svg>
