<svg width="18" height="18" viewBox="0 0 18 18" fill="none" xmlns="http://www.w3.org/2000/svg">
<path fill-rule="evenodd" clip-rule="evenodd" d="M10.6876 1.6875C10.9983 1.6875 11.2501 1.93934 11.2501 2.25V6.90707L12.5423 7.33779C12.5869 7.35164 12.6302 7.37118 12.6709 7.3964C12.7285 7.43193 12.7782 7.47704 12.8186 7.52885C12.9171 7.65527 12.96 7.82163 12.9266 7.98628C12.9137 8.05068 12.8894 8.11325 12.8537 8.17079C12.8286 8.21158 12.7986 8.24841 12.7649 8.28076L11.547 9.49866L15.9007 10.708C16.1876 10.7877 16.3605 11.0759 16.3011 11.3633C16.3087 11.4002 16.3126 11.4382 16.3126 11.4766V13.6703C16.3126 13.9219 16.1456 14.1429 15.9035 14.2115L9.15348 16.124C8.98387 16.1721 8.80154 16.1378 8.66091 16.0315C8.64885 16.0224 8.63721 16.0128 8.62602 16.0029L2.0968 14.1529C1.85473 14.0843 1.68764 13.8633 1.68764 13.6117V11.418C1.68764 11.3897 1.68977 11.3617 1.69392 11.3342C1.65158 11.0567 1.82237 10.785 2.09959 10.708L6.4533 9.49866L5.23539 8.28075C5.20166 8.24839 5.1717 8.21157 5.14654 8.17079C5.11091 8.11325 5.08663 8.05068 5.0737 7.98628C5.05716 7.90484 5.0593 7.82298 5.07761 7.74575C5.1115 7.60283 5.20073 7.47574 5.32935 7.3964C5.37009 7.37117 5.41335 7.35164 5.458 7.33779L6.75014 6.90707V2.25C6.75014 1.93934 7.00198 1.6875 7.31264 1.6875C7.6233 1.6875 7.87514 1.93934 7.87514 2.25V7.29954C7.87606 7.33889 7.87281 7.37786 7.86566 7.41587C7.85024 7.4989 7.81658 7.57552 7.769 7.64142C7.69818 7.73951 7.5965 7.81386 7.4782 7.85024L6.66646 8.12082L9.00014 10.4545L11.3338 8.12082L10.5221 7.85024C10.4849 7.83879 10.4493 7.82359 10.4158 7.80508C10.3414 7.76414 10.279 7.70774 10.2313 7.64142C10.1835 7.57519 10.1497 7.49812 10.1344 7.41461C10.1274 7.37699 10.1242 7.33845 10.1251 7.29953V2.25C10.1251 1.93934 10.377 1.6875 10.6876 1.6875ZM8.6024 11.6477L7.36708 10.4124L4.03316 11.3385L9.10354 12.7751L14.0715 11.3675L10.6332 10.4124L9.39789 11.6477C9.17822 11.8674 8.82206 11.8674 8.6024 11.6477ZM9.56264 14.8388V13.8143L15.1876 12.2206V13.245L9.56264 14.8388ZM2.81264 12.162L8.43764 13.7557V14.7802L2.81264 13.1865V12.162Z" fill="#DDD6FE"/>
</svg>
