<svg width="20" height="14" viewBox="0 0 20 14" fill="currentColor" xmlns="http://www.w3.org/2000/svg">
<path fill-rule="evenodd" clip-rule="evenodd" d="M10 12C12.7614 12 15 9.76146 15 7.00004C15 4.23862 12.7614 2.00004 10 2.00004C7.23858 2.00004 5 4.23862 5 7.00004C5 9.76146 7.23858 12 10 12ZM10 13.6667C12.1809 13.6667 14.1173 12.6194 15.3336 11.0004C15.3458 11.0095 15.3583 11.0184 15.3712 11.0269L17.8712 12.6936C18.2541 12.9489 18.7715 12.8454 19.0268 12.4625C19.2821 12.0795 19.1786 11.5622 18.7957 11.3069L16.2957 9.64019C16.2506 9.61013 16.2036 9.58505 16.1555 9.5648C16.3825 9.02048 16.5395 8.43962 16.6151 7.83348H19.1667C19.6269 7.83348 20 7.46038 20 7.00014C20 6.5399 19.6269 6.16681 19.1667 6.16681H16.6151C16.5395 5.56068 16.3826 4.97983 16.1556 4.43552C16.2037 4.41528 16.2506 4.39021 16.2957 4.36017L18.7957 2.6935C19.1786 2.43821 19.2821 1.92082 19.0268 1.53788C18.7715 1.15494 18.2541 1.05146 17.8712 1.30675L15.3712 2.97342C15.3584 2.98196 15.3459 2.99079 15.3337 2.99989C14.1174 1.38071 12.181 0.333374 10 0.333374C6.59978 0.333374 3.79411 2.87892 3.38472 6.16827C3.36772 6.16723 3.35059 6.16671 3.33333 6.16671H0.833333C0.373096 6.16671 0 6.5398 0 7.00004C0 7.46028 0.373096 7.83337 0.833333 7.83337H3.33333C3.35059 7.83337 3.36772 7.83285 3.38472 7.83182C3.79411 11.1212 6.59978 13.6667 10 13.6667ZM10 8.66671C10.9205 8.66671 11.6667 7.92052 11.6667 7.00004C11.6667 6.07957 10.9205 5.33337 10 5.33337C9.07952 5.33337 8.33333 6.07957 8.33333 7.00004C8.33333 7.92052 9.07952 8.66671 10 8.66671Z" fill="currentColor"/>
</svg>
